<mxfile host="www.draw.io" modified="2019-10-31T00:12:41.261Z" agent="Mozilla/5.0 (X11; Ubuntu; Linux x86_64; rv:70.0) Gecko/20100101 Firefox/70.0" etag="nt8LL-fgzvJRZm6IZIO0" version="12.1.9" type="github" pages="1">
  <diagram id="ohcparvtjzltwh67IgJ0" name="Page-1">
    <mxGraphModel dx="1408" dy="731" grid="1" gridSize="10" guides="1" tooltips="1" connect="1" arrows="1" fold="1" page="1" pageScale="1" pageWidth="827" pageHeight="1169" math="1" shadow="0">
      <root>
        <mxCell id="0"/>
        <mxCell id="1" parent="0"/>
        <mxCell id="VxFSvaexCq2cIAwln0RH-1" value="" style="shape=image;verticalLabelPosition=bottom;labelBackgroundColor=#ffffff;verticalAlign=top;aspect=fixed;imageAspect=0;image=data:image/png,iVBORw0KGgoAAAANSUhEUgAAAgUAAAICCAYAAABfmb61AAAABHNCSVQICAgIfAhkiAAAABl0RVh0U29mdHdhcmUAZ25vbWUtc2NyZWVuc2hvdO8Dvz4AACAASURBVHic7d15fFTV+cfx7w0hBEgKKKaCSkAtIIIbKopotKBFWURFpGhpKCibCFr4CVJFcQERir/fS0QUFEERxbqguNKCtYoKAkqkimxBEGUREkLYc39/ZGbMJJOQhLl3zpl83q8XmJkzz8lzuHduHmfmOXFc13UFAACqvERJyvo+R1lrcyI+wJUrR06pE5Q1HqtYU/NiTXbkxZrsyIs12ZEXa7IjL1eu/nh1eqAoWJujue9tKnUalfFNyh6PVaypebEmO/JiTXbkxZrsyIs12ZFXYVGQUEY0AACoQigKAACApMBnCopLb1BLZ55ex+9c4KNv1uYoe2t+qeMdLvqtkqpTM8arg4cKtPCzn0sd5xoQ/7gGINI5ELEoOPP0Orqt+2mSJNd15ThlfHChjPFYxZqal0lrevrVdWVeEHp3bazf1K4e9e9bkXEbY03Nq/hY7t5DZRYFRa8BfublV6ypefm5pmhdAyr6faM5bmOsSXlFOgcoAwEAgKTAKwWuXBV+KvFXRbcvONpWBmWNxyrW1LzMWpNbyteFN8t7Dpi1ptjHmppX2Jgb+kvF7ix1LuPXZNDc9qypjNsVuAZU/PtGb9zGWLPyCr+dKCnQtxj+kkPwJQZbXgaxIS/z1hS8HaFNxSnfOWDemmIba2peJcac0F/BR6i0a4CvefkUa2pe/q+pjHOgnNeAyn3f6IzbGGteXkV/DvD2AQAACKAoAAAAkigKAABAAEUBAACQRFEAAAACaEm0KDb6c9OS6EWsqXmFjdGSaGxe/q6JlsRYxJqVFy2JVsZ6MzctidGONTWvEmO0JBqZl/9roiXR71jz8qIlEQAAREBRAAAAJFEUAACAAIoCAAAgiaIAAAAEUBQAAABJ7FNgVWz052afAi9iTc0rbIx9CozNy981sU9BLGLNyot9CqyM9WZu9imIdqypeZUYY58CI/Pyf03sU+B3rHl5sU8BAACIgKIAAABIoigAAAABFAUAAEASRQEAAAigJdGi2OjPTUuiF7Gm5hU2RkuisXn5uyZaEmMRa1ZetCRaGevN3LQkRjvW1LxKjNGSaGRe/q+JlkS/Y83Li5ZEAAAQAUUBAACQRFEAAAACKAoAAIAkigIAABBAUQAAACSxT4FVsdGfm30KvIg1Na+wMfYpMDYvf9fEPgWxiDUrL/YpsDLWm7nZpyDasabmVWKMfQqMzMv/NbFPgd+x5uXFPgUAACACigIAACCJogAAAARQFAAAAEkUBQAAIICWRItioz83LYlexJqaV9gYLYnG5uXvmmhJjEWsWXnRkmhlrDdz05IY7VhT8yoxRkuikXn5vyZaEv2ONS8vWhIBAEAEFAUAAEASRQEAAAigKAAAAJIoCgAAQABFAQAAkMQ+BVbFRn9u9inwItbUvMLG2KfA2Lz8XRP7FMQi1qy82KfAylhv5mafgmjHmppXiTH2KTAyL//XxD4Ffsealxf7FAAAgAgoCgAAgCSKAgAAEEBRAAAAJFEUAACAAFoSLYqN/ty0JHoRa2peYWO0JBqbl79roiUxFrFm5VVFWxKzsrL0yiuvaNeuXUpKSlKDBg2UmZmp+vXr+5aXeW0s8dOSePDgQc2cOVNr165VXl6e6tatq8suu0wdO3b09Pv6OXdUY+OgJfHw4cN69tlnQ8c8JSVFaWlpoee1Mf/WPsVWbm6zWxKzsrI0Z84c7d69u8TxjWVe8XWNCG9JTCw1Ok64rquePXvqlVdeCd3nOI5c19WIESO0aNEiXX755bFLEMds0aJF6tmzp7Zt2xa6z3EcjRs3ThkZGVq8eHHskoMnXNdVRkaGPv300xJjwed1RkZGDDJDNBS9bgev10Fct70V90XBuHHjQgVBenq6evXqpSNHjmjGjBnauXOnVq5cycllsfz8fF133XXKycmRJPXq1Uunn3661qxZo7lz5+qrr76KcYbwwrhx47RkyRJJvx7z3NxczZ49O/S8piiwV9Hrdrt27XTFFVeUOL5ct70R90XBhAkTJBUWBN9++62Sk5Pluq7GjRunp59+Wq1bt45xhjgWTz/9dKggmDp1qgYMGCCp8P80xowZo/nz58cyPXgk+LwueswladKkSTyv40DR6/bChQuVlJQkiePrh7guClzXDf3AuOaaa5ScnBwaS0hICLuYwE67du0KfX399deHjTVv3lzNmzf3OyV4LPi8dhynxDEv+rw+2geuYKbi1+3q1auHxrhuey+uWxIdxwkVArNmzdKKFStinBGirWbNmqGv77rrLn4QVAFFn9cc8/hT/Lq9cePG2CZUxSRIKtKS+Gtrouu6oSdb8OtIf8oaj1Vs0fHJkyfLcRzl5+erdevW6tSpk55//nkdOHDA2jVFI7ZQ0VbUYueAW75zINZr6t+/v8444ww5jqM5c+bo1FNP1e23364lS5bExXHyKvbXlsTSzoGS54tJa5o8ebIkhR3zN954I+x5bcq/tannXqRjXplrgBdrKnrdbtOmTcTjW1WOk5ex4ce8UIJUtCXx19ZEx3FCrQvBryP9KWs8VrFFxwcMGKBFixbpzDPPlOu6euedd/SXv/xFycnJmjBhgpVrikZsoaKtqMXOAad850Cs11SvXj2tWrVKQ4cOleu62rhxo6ZMmaJ27drp/PPP13//+1+rj5NXsb+2JJZ2DpQ8X0xa04ABAzRjxoywY37dddeFPa9N+bc29dyLdMwrcw3wYk1Fr9s7duyIeHyrynHyMjb8mBeK67cPgjIyMrRq1Sp98MEHuuWWW0L3jxw5UmPGjCk1bv/+/Tp06JAfKeIYVKtWTZMnT1Zubq4eeughpaenS5KWL1+utm3bhn3uIGj79u3auHGjDh486He6iJLMzMwSx1wq/Xn9yy+/6Pvvv9f27duL/F8STBW8bs+ePbtcx7eoQ4cO6ciRI16nGJeqRFEQdOWVV2r27Nl69913Q/eNHTtWBQUFYY/Lz89Xjx49VLNmTaWlpfmdJiopNTVVo0eP1oYNG9S3b19JUk5OTuilZkmaOXOmGjdurBNPPFFNmjRRjRo11Ldv3xLnAOxQ9JhPmTIldP/YsWNDP/hnzJihhg0b6vjjj1fTpk2VlpamRo0aKSsrK1ZpowJ69eoV8fiW9pzt0KGDkpKSlJiYqA0bNviVZtyoUkVB0FVXXaV+/fqFbufl5YW+3rFjhy6//HLNmzcvFqkhChzH0fjx40O3g8c3NzdXffr00ZYtWzR06FBdc801kqRnn31Wd999d0xyRXQ4jqNBgwaFPa/379+v3Nxc9evXT0eOHAn9H2bLli21efNm3XvvvTHMGBUR6fgWvW4Hvfnmm/rnP/8Zus0rgRUX10XBgQMH9OWXX0YcK+1k+ctf/qIffvghrCqFuVasWKH8/PwS9x8+fLjEfUlJSRo+fLh27dqlv//971qwYIEGDhwoSZo+fbrnuSI6KvK8TkpK0vjx4/Xjjz9q3Lhxuv/++7V06VKlpaVp1apVfqSLCqrMdVsqfM4PHTpUtWvXVocOHbxKL+7FdVEwZ84cnX/++ercubM+/PBDHTlyRK7r6h//+IdmzZolSWrWrJl+85vfhGKuvfZaffrpp2GfPYC5unXrpoYNG2r8+PHasWOHXNfVvn37NGLEiNBjLrzwQklScnKyHnvsMaWkpITG+vTpI0navXs37zNbIvi87t+/f9gxf+yxx8Ke1zVr1lRycrLuvvtuVatWLRSfnJysNm3aaO/evbFaAspQ/Lpd2vEtet2WpAcffFDZ2dl69NFHdfbZZ8ci9bgQ15sXHXfccZKkBQsWaMGCBaH7f/3UpUq8ItC3b1+5rqs9e/b4kySOyfHHH69NmzZp1KhRGjVqVOj+4DFu166devbsWWr8jz/+KEk66aSTws4LmCv4vJ4+fbqeeeaZiI8p65W+bdu26d1339Wll17qSX44NsWv247jlCjYix/fTZs2aezYsWrRooUGDRqk4cOH+5ZvvInrX53ctWtXvfXWW3rnnXf0ww8/aOfOnSooKNAJJ5ygCy+8UH/84x912mmnlTpP8IdE8fFYrim6c7ulfK1Qj7I337f840eLff311/X666/rk08+0c6dO5WXl6fk5GSdcsop6tatm2644YZS5zhy5EioH/rWW2+N2jl/tHEjYkP7FIQ9osy5TFlT8Hn92muvaePGjaFjfsIJJ+icc84JPa+Dsfv27dMTTzwh13W1Zs0aLViwQA0bNtTIkSONWVO0Yis+dxm3K3ANqPj3LX28+HV7x44dql69eonjG4w5cOCAbrjhBtWpU0cvvfRSaJ7Srt+VzSuasWblFX477n91cufOndW5c+cKxxb9b9HHmrCm6MUW/ZWZTomh8pwDsV5Tenq6hg0bpmHDhlU49o477tBHH32ks846S/fdd19UzvlorMmX2NA+BaFHqLRrgK95lXO8c+fO6tSpU7liDxw4oGnTpkkqfGVo//79kgp/Le9VV11lzJqONbZyc5dxDpTzGlC571v2eNHr9tHmHjp0qJYtW6Y5c+borLPOChuTFCfHycvYoj8H4vwzBUBpPv/8cz355JNKTk4O/XpWxKd69epp3bp1WrdunfLz8/Xee+8pLS1Nw4cP15YtW2KdHo5Bdna2pk2bposvvlh//OMfQ/cHn88JCfyIqyj+xVDlHD58WJmZmZKkt99+W82aNYttQvCN4zj6wx/+oL///e+SFPZyM+zzn//8R1LhfiRdu3ZVt27d1K1bN82ePVtS4QeJZ86cGcMM7RPXHzQEinNdV+3bt9eaNWv07rvvqn379rFOCTHw29/+VlLk1lXYIykpSXXr1tWPP/4Y+tCwVNhNJElfffWV1q5dG6v0rMQrBaUIvuxUtJUJ9rvyyiv173//W3fffbc6duwY63TgsUWLFun9998vcX+wa6Hoe9Cwz4033qhdu3aV+HPXXXdJkpYtW6aHHnooxlnahVcKipk+fbqWL18e2i9/586dGjx4sFzXVceOHdWlS5cYZ4jKevHFF0O7nX300Ufq1q1b2Pgtt9yi7t27xyI1eGTx4sUaO3asfve736l79+6qVq2a3n77ba1cuVLNmjUL7WoJoFBctyRWZu49e/Zox44dkgqrUKnwl+dICm12YtuaSh+3vyWxIrGNGzcOHdNICgoKSnSe+JFXTGItbkmsSOyQIUOUlpamjz/+WFlZWTpy5IhOPfVUdezYUQMGDLByTdGd27yWxGjMffbZZ+vGG29U3bp14+Q4eRlbxVoSKzp25513atiwYXG1ptLH7W9JrEjsJZdcoksuucTT7+vl3FGNtbwlsbyx9evX1+DBgzV48GCj8jLn3DOzJfFY5+7du7d69+4dR8fJy1haEgEAQAQUBQAAQBJFAQAACKAoAAAAkigKAABAAEUBAACQxD4FVsVGf+6qtU+BX7Gm5hU2VkX2KbAxL3/XFJ/7FJgea1Ze7FNgZaw3c1etfQr8iDU1rxJjVWSfAtvy8n9N8blPgcmx5uXFPgUAACACigIAACCJogAAAARQFAAAAEkUBQAAIICWRItioz83LYlexJqaV9gYLYnG5uXvmmhJjEWsWXnRkmhlrDdz05IY7VhT8yoxRkuikXn5vyZaEv2ONS8vWhIBAEAEFAUAAEASRQEAAAigKAAAAJIoCgAAQABFAQAAkMQ+BVbFRn9u9inwItbUvMLG2KfA2Lz8XRP7FMQi1qy82KfAylhv5mafgmjHmppXiTH2KTAyL//XxD4Ffsealxf7FAAAgAgoCgAAgCSKAgAAEEBRAAAAJFEUAACAAFoSLYqN/ty0JHoRa2peYWO0JBqbl79roiUxFrFm5UVLopWx3sxNS2K0Y03Nq8QYLYlG5uX/mmhJ9DvWvLxoSQQAABFQFAAAAEkUBQAAIICiAAAASKIoAAAAAbQkWhQb/blpSfQi1tS8wsZoSTQ2L3/XREtiLGLNyouWRCtjvZmblsRox5qaV4kxWhKNzMv/NdGS6HeseXnRkggAACKgKAAAAJIoCgAAQABFAQAAkERRAAAAAhIj3fnN2hw9/eo6v3OBj75Zm1Pm+Kz5G5VUnZoxXh08VFDmONeA+Mc1AJHOgYj7FGRv3avsrXt9SwwmCO9VXfjZTzHKA7HDNQC/ngNcA6qmUvcp+FWEHvZyj8cq1tS8WJMdebEmO/JiTXbkxZrsyIt9CgAAQBEUBQAAQBJFAQAACKAoAAAAkigKAABAQMSWxKvaNlDmtY1jlBL8MPPNjfrg061F7glvSXz6vguUUjviNhaIA3l7D+u2sUuL3Vv2r1wte9zGWC/ntn9NXAPiX8mfA6W0JCZWc1QrufBksOtXQJqdl0lrSqxW9JiXbFNJTq5WrnPApDWZEGtqXsXHDh8pfsxtbaGKx7YwM9ZU3mvA0carwvPJlLmP/ecAbx8AAIAAigIAACCJogAAAARQFAAAAEkUBQAAIICiAAAASCplnwKpsHUh0teRlDUeq1hT8zJrTW4pXxfeLO85YNaaYh9ral5hY27oLxW7s6zZKzlmaqyXc8fBmipwDTjaeNw/nwya+9h+DpTxq5ODvYy29FvakJd5ayp9nwI55TsHzFtTbGNNzavEmBP6K/gI2deXb05PvxmxUZ67nNeAo41XieeTIXMf+88B3j4AAAABFAUAAEASRQEAAAigKAAAAJIoCgAAQAAtiRbFRn9uWhK9iDU1L1oS/Zw7DtZES2IVWRMtiVbGejM3LYnRjjU1L1oSbcnLoDXRklhF1kRLIgAAiICiAAAASKIoAAAAARQFAABAEkUBAAAIoCgAAACS2KfAqtjoz80+BV7EmpoX+xT4OXccrIl9CqrImtinwMpYb+Zmn4Jox5qaF/sU2JKXQWtin4Iqsib2KQAAABFQFAAAAEkUBQAAIICiAAAASKIoAAAAAbQkWhQb/blpSfQi1tS8aEn0c+44WBMtiVVkTbQkWhnrzdy0JEY71tS8aEm0JS+D1kRLYhVZEy2JAAAgAooCAAAgiaIAAAAEUBQAAABJFAUAACCAlkSLYqM/Ny2JXsSamhctiX7OHQdroiWxiqyJlkQrY72Zm5bEaMeamhctibbkZdCaaEmsImuiJREAAERAUQAAACRRFAAAgACKAgAAIImiAAAABFAUAAAASexTYFVs9OdmnwIvYk3Ni30K/Jw7DtbEPgVVZE3sU2BlrDdzs09BtGNNzYt9CmzJy6A1sU9BFVlT+D4FiaVGWywrK0tz5szR7t27lZKSorS0NGVmZqp+/fqxTg0eOXjwoGbOnKm1a9cqLy9PdevW1WWXXaaOHTvGOjUAlXTw4EFNmTJF69evl+M4qlOnji655BKe1x6Kq6LAdV317NlTr7zyihzHCXuZZMSIEVq0aJEuv/zy2CUITyxatEg9e/bUtm3bQvc5jqNx48YpIyNDixcvjl1yACol+Lzevn17iZe8eV57J66KgnHjxumVV16RJLVr105XXHGFcnNzNXv2bO3cuVMrV66kKIgz+fn5uu6665STkyNJ6tWrl04//XStWbNGc+fO1VdffRXjDAFUVNHndVpamvr27avExER99tln+vDDD3leeyiuioIJEyZIktLT07Vw4UIlJSVJkiZNmqSnn35arVu3jmV68MDTTz8dKgimTp2qAQMGSCp81WjMmDGaP39+LNMDUAlFn9ezZ8/WVVddFRr79ttveV57KG6KAtd1QyfRNddco+rVq4fGEhISQj8sEF927doV+vr6668PG2vevLmaN2/ud0oAjlHR53WbNm3CxnheeytBUpGWxF9bE13XDb2PE/w60p+yxv2MlaTGjRvLcRw999xzmjdvnhF5RSvWi3+vosdbxc8Bt3znQKzX1KRJEzmOI8dx1L17d33++edxdZy8iv21JbGMc6Dc4zbGmpqXQWtyFbPztujz+s4771ReXp7RzydT5q5obPgxL5QgFW1J/LU1MXhAin4d6U9Z437HTp8+Xa7rav/+/erZs6eaNGmiCRMmaN++fTHNKxqx0Z67UNFW1GLngFO+cyDWa8rMzNQll1wi13X18ccf66KLLlKTJk00b968uDhOXsX+2pJYxjlQ7nEbY03Ny6A1OYrZeVv0eT1z5kylpqaqd+/e+vjjj418Ppkyd0Vjw495obja0bB9+/ZavHixWrZsKUnKzs7WyJEjVbt2bT366KMxzg5eWbx4sYYNGxa6nZ2drZ49e6p169ZavXp1DDMDUFnFn9cvvPCCMjIyeF57LK6KAqmwVWXVqlWaPXu20tPTQ/ePHDlSY8aMCXtsWS+xwB7VqlXT5MmTlZubq4ceeih03JcvX662bduGvT9ZVE5OjjZt2qSdO3dy3AHDBJ/XK1eu1C233BK6v/jzuqyXy7mmV1zcFQVBvXr10oYNGzRlypTQfWPHjlVBQYEk6cUXX1RCQkLEP7NmzYpV2jgGqampGj16tDZs2KC+fftKKvzBP3ny5LDH7dixQxkZGapbt67S09NVv359paamauPGjTHIGkBZWrVqpdmzZ2v9+vW68MILJYU/r++5555Sr+WJiYm6+eabY5m+deKm+yASx3E0aNAgrVixQtOnT5ck5eXlKTU1VXv27JEktWzZUq1atQqLK/oKA+zjOI7Gjx8fdsyD9uzZozZt2mjDhg2666671KBBA+Xm5mr+/Pnau3dvrFIGcBRNmjTRP/7xD51yyimSfn1et27dWt27dy/x+EOHDmn+/Pk6fPiwr3naLm6KggMHDigrKyviXgQHDx4sNa5///66/fbbw+7j5SZ7rFixQs2aNVOtWrXC7i/tQjBixAitX79eEydO1F//+tfQ/WPHjvU0TwDlV9rzOtK1vHv37hGLgv/85z+aP3++Onfu7Fme8Shu3j6YM2eOzj//fHXu3FkffvihXNfVvn379Nhjj4XeDmjWrJl+85vfhMVRRdqtW7duatiwocaPH68dO3aEjvuIESNCjwm+5Hjo0CFNmzZNycnJuuOOO2KVMoCjKPq83rNnj1zX1fLly3XTTTeFHhN8Xpdm0qRJSklJCfs8Ao4ubn51csuWLZWamqp33nlH77zzTtjjHMfRueeeq5kzZ4b1ajqOoy1btuizzz5TYmKiTj31VNWrV8+YNXk/t1vK1wr1KHvzfcs/frTYtm3b6uWXX9Y999yje+65J2wsOTlZI0aM0E033STXdfXee+/JcRz17dtXOTk5WrVqlQoKCtSsWTOddNJJxqzJl1g39JeK3VnW7JUcMzXWy7njYE0VuAYcbbyiseV9Xpc296JFi/Tmm29q8ODBchyn1O8fP9fyY4kNvx03vzr5ggsu0M6dOzVr1ix988032rRpk5KTk9WoUSNdc801ateuXVjskSNH5LquJk6cqIkTJ4bGWrRooddff11NmzaN+Zq8nzt421Xx4x/sUfbm+5ZvvDyxL730ksaMGaM5c+Zo8+bN+uWXX5SSkqIWLVrojjvuUEpKSujx3333nVzX1QsvvKAnn3wy7Mlx8cUXa+HChapVq1bM1+RLrBP6K/gIlTgHwmcoY9zGWFPzMmhN5bwGHG28MrFFn9cbNmxQfn6+GjRooNNOO0233npr6Hld2txDhgyR67rq0aOHcc9FL+c+9p8DcfSZAkmqXr166FPnR/vH6dq1qw4fPqymTZuqWrVqoTbGr7/+Wvfee69efvllv9LGMWrevHmJzwREOv7BDybl5OTowQcfVLdu3bRs2TLdf//9WrJkie69915NmjTJt7wBlC74vD7atby4f/7zn1q9erXS0tLC/mcQ5RNXRUFFNGrUKGxjjD/84Q8aNmyYWrZsyS/biHP33XefRo8eLcdx1LJlS51yyinq0KGDXn/9dYoCwHL/+7//K0lh13eUX9x80DAaEhMT1bVrVx04cIAOhDgUfMkxuFdF0Nlnny2p7C4VAOZbt26d3nrrLUkq0VWG8qEoKCYvL08JCfyzxKMzzjhDkrR06dKw+/Pz8yVJNWvW9D0nANETfKWvf//+Sk1NjXE2dqqyP/0++uijEvctXbpUU6dO1UUXXVSh97Bghw4dOkiS3n//fW3atCl0f7B98corr4xJXgCO3Z49ezR16lRJ0p133hnjbOwVNy2JFR2/4oordMIJJ+jiiy9WUlKSfvnlF/3rX/9SvXr19Le//c3KNVXFlsSKxCYlJenJJ5/U4MGD1b59e5133nn67rvvtGrVKv3+97/XQw89FNayWtnvW9G8YhJLS6LHc8fBmmLYkliZue+88045jqMePXqoadOm5Xoum74mf2LjtCWxonPv3LlTM2bM0Pbt25Wfn69TTz1VPXr0UJ8+fZSYmGjlmqpiS2JFYwcOHKhOnTrpqaee0t69e/W73/1OTz31lC6++OKofN/K5uV7LC2JhuZl0Jpi2JJYmbmbNWum++67T3/96189v3bF1zUijlsSK6JevXoaPnx4xDE+ZBjfGjVqpIcffpi3iIA4UnQXU1Relf1MAQAACEdRAAAAJFEUAACAAIoCAAAgiaIAAAAEVNl9CmyMjf7cVWufAr9iTc2LfQr8nDsO1mTZPgU2xZqVF/sUWBnrzdxVb58Cr2NNzYt9CmzJy6A1WbZPgS2x5uUVvk8Bbx8AAABJFAUAACCAogAAAEiiKAAAAAEUBQAAQBItiVbFRn9uWhK9iDU1L1oS/Zw7DtZES2IVWRMtiVbGejM3LYnRjjU1L1oSbcnLoDXRklhF1kRLIgAAiICiAAAASKIoAAAAARQFAABAEkUBAAAIoCgAAACS2KfAqtjoz80+BV7EmpoX+xT4OXccrIl9CqrImtinwMpYb+Zmn4Jox5qaF/sU2JKXQWtin4Iqsib2KQAAABFQFAAAAEkUBQAAIICiAAAASKIoAAAAAbQkWhQb/blpSfQi1tS8aEn0c+44WBMtiVVkTbQkWhnrzdy0JEY71tS8aEm0JS+D1kRLYhVZEy2JAAAgAooCAAAgiaIAAAAEUBQAAABJFAUAzE/9VgAAHFVJREFUACCAlkSLYqM/Ny2JXsSamhctiX7OHQdroiWxiqyJlkQrY72Zm5bEaMeamhctibbkZdCaaEmsImuiJREAAERAUQAAACRRFAAAgACKAgAAIImiAAAABFAUAAAASexTYFVs9OdmnwIvYk3Ni30K/Jw7DtbEPgVVZE3sU2BlrDdzs09BtGNNzYt9CmzJy6A1sU9BFVkT+xQAAIAIKAoAAIAkigIAABBAUQAAACRRFAAAgABaEi2Kjf7ctCR6EWtqXrQk+jl3HKyJlsQqsqZytCR+szZHz/xjfZkTw27frM1RWS2Js97aqKTqvJAUrw4eKhAtiSbmZc6auAbEv5I/BwJFQXHZW/OVvTW/yAOr9pPDjFiv5w638LOfffq+Jv5bV8U1AeHKfw042nhVfD7ZmhefKQAAAAEUBQAAQBJFAQAACKAoAAAAkigKAABAQKn7FISr4v26xsR6OTdril6sl3OzpujFejk3a4perJdzs6biSv3VyeET2NhaYWJe9qzpydGtlVI70dtv6+XcVeMwVTo2b+9hDXr4y1If0OGi36p318a+5+VbrKl5+bimWfM3ltl2WO5rQAW/b1THbYw1KK/wc6CwWIi4TwGQUjtRv6ldXZKq0O8VP/ZYU/M6WmxxSdUTQsc/lnlxnLyb+2gbE5X3GlDR7xvNcRtjTcor0jnAZwoAAIAkigIAABBAUQAAACRRFAAAgABaEq2K9XJut8RNfnVy5WJNzauivzq5+FzGr8mgue1ZUxm3K3ANqPj3jd64jbFm5RV+m5ZEa2J9zstR6FOqVeFTuNGKNTWvEmNO6K/gI1T8HCj6eCvWZMjcdq2pjHOgnNeAyn3f6IzbGGteXsHbhcUBbx8AAABJFAUAACCAogAAAEiiKAAAAAEUBQAAQBJFAQAACGCfAqtivZybfQqiFWtqXuxTYEde7FPg39ysSSp+DrBPgTWxPufFPgWVijU1L/YpsCMv9inwb27WFMQ+BQAAIAKKAgAAIImiAAAABFAUAAAASRQFAAAggJZEq2K9nJuWxGjFmpoXLYl25EVLon9zsyap+DlAS6I1sT7nRUtipWJNzYuWRDvyoiXRv7lZUxAtiQAAIAKKAgAAIImiAAAABFAUAAAASRQFAAAggJZEq2K9nJuWxGjFmpoXLYl25EVLon9zsyap+DlAS6I1sT7nRUtipWJNzYuWRDvyoiXRv7lZUxAtiQAAIAKKAgAAIImiAAAABFAUAAAASRQFAAAggKIAAABIYp8Cy2K9nJt9CqIVa2pe7FNgR17sU+Df3KxJKn4OsE+BNbE+58U+BZWKNTUv9imwIy/2KfBvbtYUxD4FAAAgAooCAAAgiaIAAAAEUBQAAABJFAUAACCAlkSrYr2cm5bEaMWamhctiXbkRUuif3OzJqn4OUBLojWxPudFS2KlYk3Ni5ZEO/KiJdG/uVlTEC2JAAAgAooCAAAgiaIAAAAEUBQAAABJFAUAACCAogAAAEhinwLLYr2cm30KohVral7sU2BHXuxT4N/crEkqfg6wT4E1sT7nxT4FlYo1NS/2KbAjL/Yp8G9u1hTEPgUAACACigIAACCJogAAAAQkxjoBIBoOHjyomTNnau3atcrLy1PdunV12WWXqWPHjrFODR45cuSInn322dAxT0lJUVpamjIzM1W/fv1YpwdYiaIA1lu0aJF69uypbdu2he5zHEfjxo1TRkaGFi9eHLvk4AnXdZWRkaFPP/20xNiIESO0aNEiZWRkxCAzwG60JFoV6+XcdrYkrl69Wl26dFF+fr6aNm2qwYMH68QTT9SPP/6oV199VVlZWaXOYeqaaEk8+njfvn21ZMmSsGO+b98+ffTRR3rjjTf09ddfKyMjw4x/ax9jKz43LYmxiDUrL1oSLY31OS9LWhJfe+017d27V5I0f/58NWvWLDQ2bNgwFRQURJzD5DXRklj2uOu6mj17tqTwYy5Jf/7znzV9+vRQjBH/1j7FVm5uWhL9jjUvL1oSEUcOHz4c+nrz5s0lxhMSOMXjUfC4l3bMy7owAigdV0xY7Zxzzgl9fcMNN+j111+PYTbwg+M4OvvssyVxzIFooyiA1bp166Z27dpJknJycnT99dercePGmjdvXowzg5cmTZokKfyYP/roo8rPz49xZoimrKwsjR49WoMGDdL//M//aOLEidqxY0es04prFAWw3uLFizVs2LDQ7ezsbPXs2VOtW7fW6tWrY5gZvNK+fXvNmDEjdDs7O1sjR45U7dq19eijj8YwM0SD67q66aab1KpVK40fP15Tp07VY489phEjRuiEE06go8hDFAWwXrVq1TR58mTl5ubqoYceUnp6uiRp+fLlatu2rXbt2lUiJicnR99//7127tx51E/rwkyZmZkljrkkjRw5UmPGjCnx+Ly8PH3//ffasmULx9xw48aN0yuvvCJJateune677z4NGzZMxx9/vCRp5cqVsUwvrlEUIG6kpqZq9OjR2rBhg/r27Sup8If/5MmTQ4/ZuHGjOnTooOOOO05NmzZV/fr11ahRI73//vuxShvHoOgxnzJlSuj+sWPHhn7wr169WpdeeqlSU1PVtGlTnXzyyUpNTdXnn38eq7RxFBMmTJAkpaena+HChXrggQc0efJkbdu2TVOnTtUll1wS4wzjF/sUWBXr5dx27lNQ2vhjjz0Wenl5z549cl1XeXl5ateunX766Sf93//9n5o2barvvvtOY8aM0dVXX62lS5fqvPPOO+acjzZuRKzl+xREGhs4cKCysrL01FNPSZL27dunNWvWKCMjQ4cOHdLDDz+sli1bavv27XrkkUd04403av369UpMjLyHmwlr8n5uM/cpyM3NleM4Ouecc1S9evXQuOM46t+/f1hM1ThOXsaG306Qiu5TEOmPyhg72nisYk3Ny6I1OYVPwKL93pH+lDV2rOPlie3Xr5/GjRunw4cPh40tW7ZMruvKdV3Vrl1bjuPo22+/1ZYtW/SnP/1JgwcP1lVXXaUhQ4Zo4MCBcl1XH3/8sRFr8iP2130KSjsHFJO8yjP+5ZdfqmvXrlq3bl3Y/Xv37tXChQtDxz05OVkvvPCC9uzZo/Hjx+uee+5R165d1bdvX7344ovasmWL5syZY8SaohFb4XMgwjGvzDXAizWdddZZcl1Xb775ph544AHj/q3j5RoRfswLsc0xrLZgwQL9/PPPeuSRR9SnTx8df/zx2rdvn6ZNmxZ6zO233y5JSk5OliS9//77Onz4sKpXry5JWrhwoSSpVatWPmePyli2bJnefvttLVy4UP369Qsd85kzZ4a2uu7fv78SEhL07bffSpLatGkTNkebNm1Uo0YNrVmzxvf8cXSTJk1Shw4dJBW+FTRz5kwNHDhQQ4YMUa1atWKcXXzjMwWwWmZmpiRp7969euKJJ/TAAw9owoQJys3NVe3atfXBBx/oxBNPlFT4Q//CCy/U1q1bddttt+nQoUPq3LmzvvjiC7Vr107t27eP4UpQXl26dNHxxx+vAwcOhB3zYEFw9dVX64knnpAkpaSkSJJ+/vnnsDkcx1FycnJoN0yYpX379lq8eLFatmwpie4SP/FKAaw2fvx4ZWZmas6cOdq8ebN++eUXpaSkqEWLFrrjjjtCPxSCPvjgA91www16/vnnNXPmTElSp06d2ADHIieddJK2bt2qJ598Ul999VXomDdq1EjXXHNNaN8K13V16qmnSpIeffRRXX311UpKSpIkffHFF9qzZ4+qVasWs3WgbBkZGVq1apVefPFFjR49WtnZ2ZIKu0vy8/P1wAMPRIzbv3+/qlWrFnolMJLt27crLy9PJ598cpmPq4ooCmC95s2ba+zYsWH3lbYHeI0aNdSgQYOw+zZs2KAlS5bosssu8zRPRE/16tV1xx13RDzGRQ0dOlRTp07VkiVLdNxxx6lNmzbKysrStm3b5DiOjhw54lPGqKxevXqpV69emjp1qgYPHiyp8C2FMWPGhB3/nJwc3XrrrZo3b57q1q0bsRX5ww8/1K233qrs7Gw5jiPXdTV48ODQK0vg7QNUIfn5+brgggv0wgsv6OGHH9b27dt14403avXq1crIyNBHH30U6xQRZSeeeKK+/vpr3XXXXTr33HO1bds2tW3bVo8//rhq1aqlGjVqxDpFlIPjOBo0aJD69esXui8vLy/09bx585Senl7mTqZLly7VVVddpezsbPXr10/33nuvEhMTNWXKFP3tb3/zNH+b0JJoVayXc8dXS2KkseHDh+ubb77Rvffeq5EjR0qSXn75ZXXs2FH9+vXTqFGj9Mknnxzz961oXjGJjcOWxNLGTznlFE2cODHs/u3bt2v48OE688wzS53D5DVFb27zWhLXr1+vefPmqXv37jrttNNC4wcOHND3338fenUg2Er6xRdfqE+fPsrMzNTVV1+tLl26hM0Z/O+QIUPkOI5ee+01XXvttZKk7t2769xzz9X48eM1fPhw1alTx5M1VXQ8li2J/Opka2J9zivQjiSV/lL80caOdTzasZs3b5brumrbtq2kX9d35ZVXynVd7dq1K/SSoi1rqnRsqCUx9AgVPweKPt6KNVVgfODAgapRo4ZuvvnmiI+xcU2Vm7uMc6Cc14DKfd/Sxz/88EONGjVKo0aNUtu2bdWhQwft37+/RHdJrVq15LquLrjgAu3atUvVq1dXbm5u2J4Gwbl/+OEHff7552rYsKG6desW+r6tWrXSjTfeqLlz52ru3LkaMGCAJ2uqyLj/scHbhf9uvH2AKqNFixaSpNGjR2vr1q2SCj+VfvPNN0tS6ANqiB+rVq3SjBkzlJeXJ9d1tX37dt1000167bXX1Lt3bz5oaKBgd4kkffrpp3rwwQdL7S6RCn/4H+3Dgj/99JMkRdwJsXHjxpKk3bt3RyN96/FBQ1QZo0eP1rvvvqvly5fr5JNPVu3atUPvS5511lklXmKG/T755BMNHDgw7L1oSWrWrJnuueeeGGWFsgS7S2bNmqVvvvlGmzZtUnJyconukooI7kfRsGHDEmPBz5Xs27fv2BKPExQFqDJSU1O1cuVKPf/88/rvf/+r/fv3q3bt2mrVqpV69ux51E+ywz633nqrCgoKtGnTJu3bt081a9ZU8+bN1bt3b463wapXrx76/SVHe0m8PPbs2VPqWEFBgSRxPgRQFKBKcRxHmZmZUbnQwHzVqlXToEGDIo4d7QNZiB/BDyzm5OSUGCv+wcWqjs8UAADiWmpqqiSFtr0uKrifQd26dX3NyVS0JFoV6+Xc8d+S6FesqXlV1ZZE2/Kq6i2Jxzp30Y6J4H/POussJSUl6fPPP9fmzZt10kknSSrcHv2ll16S4zjq0aOHb+e8l3PTkmhVXhatKQ5bEv2INTUvWhLtyIuWxIrPLSnUmbB79265buFvydyxY4dc11VaWppq1aqlPn36aNq0abruuutCux526dJFO3bs0J///GelpaUZs6ZYtiTyJgoAwFpLly4t8Vswc3JylJaWJscp/JXaNWvW1MSJE/XJJ59o2bJlatKkSWgfg/POO09PPfVUjLI3D0UBAMBaLVq00JgxYyKOBX8bplT4GzO//PJLTZs2TdnZ2XJdVy1atFCfPn2UkMDH64IoCgAA1kpJSdH9998fcaz4y+VJSUkaMmRIxDEUojwCAACSKAoAAEAARQEAAJDEPgWWxXo5N/sURCvW1LzYp8COvNinwL+5WZNU/BxgnwJrYn3Oi30KKhVral7sU2BHXuxT4N/crCkofJ8C3j4AAACSKAoAAEAARQEAAJBEUQAAAAIoCgAAgCRaEi2L9XJuWhKjFWtqXrQk2pEXLYn+zc2apOLnAC2J1sT6nBctiZWKNTUvWhLtyIuWRP/mZk1BtCQCAIAIKAoAAIAkigIAABBAUQAAACRRFAAAgACKAgAAIIl9CiyL9XJu9imIVqypebFPgR15sU+Bf3OzJqn4OcA+BdbE+pwX+xRUKtbUvNinwI682KfAv7lZUxD7FAAAgAgoCgAAgCSKAgAAEEBRAAAAJFEUAACAAFoSrYr1cm5aEqMVa2petCTakRctif7NzZqk4ucALYnWxPqcFy2JlYo1NS9aEu3Ii5ZE/+ZmTUG0JAIAgAgoCgAAgCSKAgAAEEBRAAAAJFEUAACAAIoCAAAgiX0KLIv1cm72KYhWrKl5sU+BHXmxT4F/c7Mmqfg5wD4F1sT6nBf7FFQq1tS82KfAjrzYp8C/uVlTUPg+BYmlRqNKy9t7+NcbcVLn+BJral7FxsKObwQHDxUod+8h3/PyLdbUvHxc08FDBWVMVIFrQAW/b1THbYw1KK9I54Djuq47991NmvvepthnGLVYU/NiTXbkxZrsyIs12ZEXa7IjL1dv/O+lfNAQAAAUoigAAACSKAoAAEAALYlWxXo5N2uKXqyXc7Om6MV6OTdril6sl3OzpuJoSbQm1tS8WJMdeVUsNr1BLZ15ep0yHg/bfbM2R9lb84vcY8a559/crKnkGC2JACI48/Q6uq37aaHbZvVVH3usqXn5uaanX11XrCgA+EwBAAAIoCgAAACSKAoAAEAARQEAAJBEUQAAAALYp8CqWC/nZk3Ri/Vybv9i+dXJ9sVWfO6j3S7vmJexXs7NmopjnwJrYk3NizXZkVfFY/nVyXbFVm7uorfNOff8mZs1lRzj7QMAABBAUQAAACRRFAAAgACKAgAAIImiAAAABNCSaFWsl3OzpujFejk3LYnRijU1L1oS/ZybNRVHS6I1sabmxZrsyIuWRBvyoiXRz7lZU8kx3j4AAAABFAUAAEASRQEAAAigKAAAAJIoCgAAQAAtiVbFejk3a4perJdz05IYrVhT86Il0c+5WVNxtCRaE2tqXqzJjrxoSbQhL1oS/ZybNZUc4+0DAAAQQFEAAAAkURQAAIAAigIAACCJogAAAARQFAAAAEnsU2BZrJdzs6boxXo5N/sURCvW1LzYp8DPuVlTcexTYE2sqXmxJjvyYp8CG/JinwI/52ZNJcd4+wAAAARQFAAAAEkUBQAAIICiAAAASKIoAAAAAbQkWhXr5dysKXqxXs5NS2K0Yk3Ni5ZEP+dmTcXRkmhNrKl5sSY78qIl0Ya8aEn0c27WVHKMtw8AAEAARQEAAJBEUQAAAAIoCgAAgCSKAgAAEEBRAAAAJLFPgWWxXs7NmqIX6+Xc7FMQrVhT82KfAj/nZk3FsU+BNbGm5sWa7MiLfQpsyIt9CvycmzWVHOPtAwAAEEBRAAAAJFEUAACAAIoCAAAgiaIAAAAE0JJoVayXc7Om6MV6OTctidGKNTUvWhL9nJs1FUdLojWxpubFmuzIi5ZEG/KiJdHPuVlTyTHePgBgub179+rnn39Wfn7+Uf8vGkDZKAoAWOndd99Vw4YNlZKSohNPPFG1a9dWamqqhgwZov3798c6PcBKFAUArLNixQp17txZW7duDbt/7969euKJJ/TUU0/FKDPAbhQFAKwzfPhwSVKbNm303XffqaCgQLt379bjjz+uBg0aKDExMcYZAnbimQPAKq7r6t///rck6fnnn1fTpk0lSXXq1NHQoUM1ZMiQMj+MB6B0vFIAwDqHDx+WJG3evLnEWEJCAkUBUEnsU2BVrJdzs6boxXo5N/sUSFKnTp30zjvv6Nprr9XAgQPVqVMnXXrppUpISDhqrJd5xTq24nOzT0FsYr2c+9jySpCK7lMQ6Y/KGDvaeKxiTc2LNdmRF2uSJMdxQn+K3y7vmFexb7zxhs4880zt3btXEydO1BVXXKE6depo5MiRysvLi1lesYyt6NyRjrkZ556pz4mqsCbePgBgocTERH366ae66667lJycLKmw82DChAk6/fTTtWLFihhnCNiJogCAlVJSUjRp0iTt2bNHzz33nNLT0yVJ27ZtU2ZmZonHu66rJ554QnfffbeWLFlS5tzvvfdeuR4HxBu6DwBYLTExUZmZmerRo4fatGmjrKwsff311zpw4EDoVYTly5erb9++WrlypSSpQYMGuuiii0rMVVBQoAcffFAPPPCAXNdVgwYNdPHFF/u6HiCWeKUAQFyoVauWOnToELpdUFAgSZoyZYpat26trKwspaWllRr/008/6eyzz9b999+vevXqeZ4vYCKKAgBWWbZsmbp06aJ169aF3Z+Xl6cFCxaEbteoUUOS9NZbb6lz585at26devfuXeq8Gzdu1A8//KDnnntOjz/+uDfJA4ajJdGqWC/nZk3Ri/VybloS165dqwULFuiDDz7Q73//e6WmpurgwYNavHixcnNz5TiOnnzySSUkJMh1Xb399tuqVq2apMJXD4r/9segNm3aaOfOnUpISNCsWbNCjystP1P+PY5tbloSYxPr5dzHlhe/OtmaWFPzYk125FXxWFN/dfJNN92krVu36pFHHtF7770XNtahQwc9/PDDuvDCC0Oxxbc8LvqDsfjcweKh6OMi5WfSv8exzV30tjnnnj9zs6aSY3zQEIBlHMfRnXfeqaFDh+qHH37Qrl27VLt2baWnpyspKSnW6QFWoygAYCXHcZSenh5qRQRw7PigIQAAkERRAAAAAigKAACAJFoSLYv1cm7WFL1YL+emJbGisf/617+0fv16JSQkaOXKlXIcR0uXLtX06dN17rnnqnXr1pKk3bt369VXX5UkLVmyJPS4Z555RgkJCcrMzAz7LYwm/ntUfG5aEmMT6+XctCRalBdrsiMv1iSZ25JY0dhnnnlGL7/8ctjYnDlz9NJLL2nUqFE6//zzJRXuaHjbbbdJKly767qaM2eO5syZI0n605/+FGpZjPWaojc3LYn+x5qaFy2JAKqAuXPnau7cuSXuL/5D8owzzgj9n/TRfvgC8YrPFAAAAEkUBQAAIICiAAAASKIoAAAAARQFAABAEvsUWBbr5dysKXqxXs7NPgXRijU1L/Yp8HNu1lQc+xRYE2tqXqzJjryq7j4FNuXFPgV+zs2aSo7x9gEAAAigKAAAAJIoCgAAQABFAQAAkERRAAAAAmhJtCrWy7lZU/RivZyblsRoxZqaFy2Jfs7NmoqjJdGaWFPzYk125EVLog150ZLo59ysqeQYbx8AAIAAigIAACCJogAAAARQFAAAAEkUBQAAIICiAAAASGKfAstivZybNUUv1su52acgWrGm5sU+BX7OzZqKY58Ca2JNzYs12ZEX+xTYkBf7FPg5N2sqOcbbBwAAIICiAAAASKIoAAAAARQFAABAEkUBAAAIoCXRqlgv52ZN0Yv1cm5aEqMVa2petCT6OTdrKo6WRGtiTc2LNdmRFy2JNuRFS6Kfc7OmkmO8fQAAAAIoCgAAgCSKAgAAEEBRAAAAJFEUAACAAIoCAAAgiX0KLIv1cm7WFL1YL+dmn4JoxZqaF/sU+Dk3ayqOfQqsiTU1L9ZkR17sU2BDXuxT4OfcrKnkGG8fAACAAIoCAAAgiaIAAAAEUBQAAABJFAUAACCAlkSrYr2cmzVFL9bLuWlJjFasqXnRkujn3KypOFoSrYk1NS/WZEdetCTakBctiX7OzZpKjvH2AQAACEiMdQIAzPPN2hw9/eq6WKcBD32zNifWKcBAFAUASsjemq/srflF7jH15c54fAk3VmsCePsAAAAEUBQAAABJgbcP2p5zvE45sWasc0EMtT2nfqxTQAzt3H1Q323MjXUaiKHvNu7Rjt0HYp0GYuz/AZbvnAOSdB0eAAAAAElFTkSuQmCC;" vertex="1" parent="1">
          <mxGeometry x="110" y="130" width="517" height="514" as="geometry"/>
        </mxCell>
        <mxCell id="VxFSvaexCq2cIAwln0RH-5" value="$$V= -0.49$$" style="text;html=1;strokeColor=none;fillColor=none;align=center;verticalAlign=middle;whiteSpace=wrap;rounded=0;fontSize=17;" vertex="1" parent="1">
          <mxGeometry x="150" y="150" width="40" height="30" as="geometry"/>
        </mxCell>
        <mxCell id="VxFSvaexCq2cIAwln0RH-6" value="$$V= 4.14$$" style="text;html=1;strokeColor=none;fillColor=none;align=center;verticalAlign=middle;whiteSpace=wrap;rounded=0;fontSize=17;" vertex="1" parent="1">
          <mxGeometry x="280" y="150" width="40" height="30" as="geometry"/>
        </mxCell>
        <mxCell id="VxFSvaexCq2cIAwln0RH-15" value="$$V= 0$$" style="text;html=1;strokeColor=none;fillColor=none;align=center;verticalAlign=middle;whiteSpace=wrap;rounded=0;fontSize=17;" vertex="1" parent="1">
          <mxGeometry x="410" y="150" width="40" height="30" as="geometry"/>
        </mxCell>
        <mxCell id="VxFSvaexCq2cIAwln0RH-18" value="$$V= 4.49$$" style="text;html=1;strokeColor=none;fillColor=none;align=center;verticalAlign=middle;whiteSpace=wrap;rounded=0;fontSize=17;" vertex="1" parent="1">
          <mxGeometry x="540" y="150" width="40" height="30" as="geometry"/>
        </mxCell>
        <mxCell id="VxFSvaexCq2cIAwln0RH-8" value="$$V= -1.28$$" style="text;html=1;strokeColor=none;fillColor=none;align=center;verticalAlign=middle;whiteSpace=wrap;rounded=0;fontSize=17;" vertex="1" parent="1">
          <mxGeometry x="150" y="270" width="40" height="30" as="geometry"/>
        </mxCell>
        <mxCell id="VxFSvaexCq2cIAwln0RH-9" value="$$V= -0.65$$" style="text;html=1;strokeColor=none;fillColor=none;align=center;verticalAlign=middle;whiteSpace=wrap;rounded=0;fontSize=17;" vertex="1" parent="1">
          <mxGeometry x="250" y="270" width="100" height="30" as="geometry"/>
        </mxCell>
        <mxCell id="VxFSvaexCq2cIAwln0RH-10" value="$$V= -0.54$$" style="text;html=1;strokeColor=none;fillColor=none;align=center;verticalAlign=middle;whiteSpace=wrap;rounded=0;fontSize=17;" vertex="1" parent="1">
          <mxGeometry x="540" y="270" width="40" height="30" as="geometry"/>
        </mxCell>
        <mxCell id="VxFSvaexCq2cIAwln0RH-11" value="$$V= -2.82$$" style="text;html=1;strokeColor=none;fillColor=none;align=center;verticalAlign=middle;whiteSpace=wrap;rounded=0;fontSize=17;" vertex="1" parent="1">
          <mxGeometry x="280" y="410" width="40" height="30" as="geometry"/>
        </mxCell>
        <mxCell id="VxFSvaexCq2cIAwln0RH-12" value="$$V= -21.13$$" style="text;html=1;strokeColor=none;fillColor=none;align=center;verticalAlign=middle;whiteSpace=wrap;rounded=0;fontSize=17;" vertex="1" parent="1">
          <mxGeometry x="410" y="410" width="40" height="30" as="geometry"/>
        </mxCell>
        <mxCell id="VxFSvaexCq2cIAwln0RH-21" value="$$V= -2.80$$" style="text;html=1;strokeColor=none;fillColor=none;align=center;verticalAlign=middle;whiteSpace=wrap;rounded=0;fontSize=17;" vertex="1" parent="1">
          <mxGeometry x="540" y="410" width="40" height="30" as="geometry"/>
        </mxCell>
        <mxCell id="VxFSvaexCq2cIAwln0RH-14" value="$$V= 0$$" style="text;html=1;strokeColor=none;fillColor=none;align=center;verticalAlign=middle;whiteSpace=wrap;rounded=0;fontSize=17;" vertex="1" parent="1">
          <mxGeometry x="410" y="530" width="40" height="30" as="geometry"/>
        </mxCell>
      </root>
    </mxGraphModel>
  </diagram>
</mxfile>
